<svg width="13" height="12" viewBox="0 0 13 12" fill="none" xmlns="http://www.w3.org/2000/svg">
<path d="M4.20697 3.79297L2.79297 5.20697L5.99997 8.41397L12.707 1.70697L11.293 0.292969L5.99997 5.58597L4.20697 3.79297Z" fill="#02543E"/>
<path d="M10.883 4.945C10.957 5.286 11 5.638 11 6C11 8.757 8.757 11 6 11C3.243 11 1 8.757 1 6C1 3.243 3.243 1 6 1C6.908 1 7.75 1.262 8.485 1.687L9.226 0.946C8.293 0.35 7.189 0 6 0C2.686 0 0 2.686 0 6C0 9.314 2.686 12 6 12C9.314 12 12 9.314 12 6C12 5.346 11.892 4.719 11.699 4.13L10.883 4.945Z" fill="#02543E"/>
</svg>
