<svg width="120" height="125" viewBox="0 0 120 125" fill="none" xmlns="http://www.w3.org/2000/svg">
<path fill-rule="evenodd" clip-rule="evenodd" d="M73.1633 24.7862C71.8533 23.4709 70.6208 23.5564 69.027 23.5564C69.027 24.6008 68.9451 25.3806 68.13 26.1956C67.5799 26.7457 66.792 27.0926 65.9692 27.0926H52.2165C51.3799 27.0926 50.6158 26.7479 50.0587 26.1924L50.0554 26.1956C49.2404 25.3806 49.1584 24.6008 49.1584 23.5564C47.5736 23.5564 46.3375 23.4707 45.0327 24.7755C44.2807 25.5275 43.8136 26.5635 43.8136 27.702V54.6151C43.8136 55.5084 43.0896 56.2323 42.1964 56.2323C41.0393 56.2323 40.1164 56.1032 39.2156 57.0043C37.5451 58.6748 38.7728 61.4801 41.0676 61.4801C49.6209 61.4801 58.1746 61.4801 66.7279 61.4801C62.2477 58.0002 59.4387 52.5971 59.4387 46.6006C59.4387 37.5373 65.8422 29.9699 74.3716 28.1748V27.7018C74.3716 26.5689 73.9091 25.5374 73.1633 24.7862ZM91.4823 20.7926C91.4823 19.8994 92.2063 19.1754 93.0995 19.1754C93.9927 19.1754 94.7167 19.8994 94.7167 20.7926V22.0257C94.7167 22.9189 93.9927 23.6429 93.0995 23.6429C92.2063 23.6429 91.4823 22.9189 91.4823 22.0257V20.7926ZM76.5769 39.076C76.5769 38.1828 77.3008 37.4589 78.1941 37.4589C79.0873 37.4589 79.8113 38.1828 79.8113 39.076V40.3531H80.8067C81.6999 40.3531 82.4239 41.0771 82.4239 41.9703C82.4239 42.8635 81.6999 43.5875 80.8067 43.5875H76.9478C76.0308 43.5875 76.0308 44.9837 76.9478 44.9837H79.1485C82.6185 44.9837 84.4117 49.2099 81.9271 51.6947C81.3638 52.2583 80.6298 52.6527 79.8113 52.7926V54.1257C79.8113 55.0189 79.0873 55.7429 78.1941 55.7429C77.3008 55.7429 76.5769 55.0189 76.5769 54.1257V52.8486H74.7349C73.8417 52.8486 73.1177 52.1247 73.1177 51.2314C73.1177 50.3382 73.8417 49.6142 74.7349 49.6142H79.1485C80.0654 49.6142 80.0652 48.2181 79.1485 48.2181C78.4148 48.2181 77.6814 48.2181 76.9478 48.2181C73.4778 48.2181 71.6846 43.9918 74.1692 41.507C74.799 40.8771 75.6411 40.4587 76.5769 40.3703V39.076ZM78.269 33.3771C85.5717 33.3771 91.4925 39.2979 91.4925 46.6006C91.4925 53.9033 85.5717 59.8241 78.269 59.8241C70.9663 59.8241 65.0455 53.9033 65.0455 46.6006C65.0455 39.2979 70.9663 33.3771 78.269 33.3771ZM85.3326 39.5369C89.2333 43.4379 89.2333 49.7633 85.3326 53.6642C81.432 57.5649 75.106 57.5649 71.2054 53.6642C67.3047 49.7635 67.3047 43.4379 71.2054 39.5369C75.1063 35.6363 81.432 35.6365 85.3326 39.5369ZM73.1067 64.7145H41.0676C35.9042 64.7145 33.2237 58.4226 36.9289 54.7176C37.8817 53.7648 39.1604 53.1365 40.5792 53.0182V27.702C40.5792 23.6399 43.8972 20.322 47.9593 20.322H49.1582C49.1582 19.2945 49.2449 18.4792 50.0654 17.6789C51.0449 16.7235 51.9063 16.7854 53.0863 16.7854L47.3415 2.20455C46.8706 1.00405 47.9601 -0.371372 49.4045 0.103274L59.2848 2.949L68.8788 0.0693132C70.1561 -0.312614 71.3609 0.949068 70.824 2.2536L65.0986 16.7854C66.2627 16.7854 67.1734 16.7261 68.1297 17.6824C68.9445 18.4972 69.0267 19.2773 69.0267 20.3217C70.4073 20.3217 71.3229 20.2613 72.6808 20.7433V1.61724C72.6808 0.724008 73.4048 4.3418e-05 74.298 4.3418e-05H112.186C113.079 4.3418e-05 113.803 0.724008 113.803 1.61724V33.9611C115.293 33.9611 116.487 33.7892 117.648 34.9473L117.651 34.9441C118.258 35.5506 118.635 36.3888 118.635 37.312V43.2565C118.635 43.8902 118.457 44.4839 118.15 44.9901C118.457 45.4963 118.635 46.0901 118.635 46.7238V52.668C118.635 53.2985 118.456 53.8909 118.147 54.3979C118.456 54.9049 118.635 55.5003 118.635 56.1356V62.0801C118.635 62.996 118.258 63.8318 117.651 64.4415C117.041 65.052 116.202 65.4309 115.284 65.4309H93.1159C91.271 65.4309 89.7651 63.9183 89.7651 62.0801V61.5152C85.0895 65.1247 78.9116 66.3662 73.1067 64.7145ZM92.9998 58.3312L93.0135 62.1399L93.1165 62.1965H115.284L115.401 62.0801V56.1356L115.284 56.0191H94.5781C94.1086 56.8302 93.5806 57.6026 92.9998 58.3312ZM96.0603 52.7847C102.469 52.7847 108.877 52.7847 115.286 52.7847L115.365 52.7556L115.4 52.6683V46.724C115.4 46.6936 115.387 46.6647 115.365 46.6429L115.368 46.6397L115.284 46.6073H97.0996C97.0988 48.7711 96.7331 50.8498 96.0603 52.7847ZM96.8231 43.3729H115.284L115.4 43.2565V37.312C115.4 37.2815 115.387 37.2527 115.365 37.2308L115.368 37.2276C108.459 37.1575 101.501 37.1953 94.5857 37.1953C95.6708 39.0739 96.4403 41.1571 96.8231 43.3729ZM92.3162 34.0617C92.5758 33.9962 92.8437 33.9611 93.1162 33.9611H103.881V16.479C100.414 15.8213 97.6807 13.0885 97.0228 9.62127H89.4613C88.8034 13.0885 86.0709 15.8213 82.6036 16.4793V28.2724C86.4207 29.1718 89.7894 31.2327 92.3162 34.0617ZM79.3692 27.8029V15.0133C79.3692 14.12 80.0932 13.3961 80.9864 13.3961C83.965 13.3961 86.3784 10.9824 86.3784 8.00408C86.3784 7.11085 87.1024 6.38688 87.9956 6.38688H98.4888C99.382 6.38688 100.106 7.11085 100.106 8.00408C100.106 10.9824 102.52 13.3961 105.498 13.3961C106.391 13.3961 107.115 14.12 107.115 15.0133V33.9611H110.569V3.23443H75.9155V23.0122C75.9901 23.22 77.606 24.7393 77.606 27.7829L79.3692 27.8029ZM93.8652 46.6006C93.8652 55.2146 86.883 62.1965 78.269 62.1965C69.655 62.1965 62.673 55.2143 62.673 46.6006C62.673 37.9871 69.6558 31.0044 78.269 31.0044C86.8825 31.0046 93.8652 37.9871 93.8652 46.6006ZM56.5563 16.7854H61.6289L66.619 4.12012L59.7648 6.17746L59.7635 6.17261C59.4791 6.25778 59.168 6.26506 58.8616 6.17746L51.5468 4.07052L56.5563 16.7854ZM65.7926 20.0198V23.8582H52.3931V20.0198H65.7926ZM34.1967 107.004C38.3251 107.004 40.4083 112.019 37.485 114.942C34.5616 117.866 29.5462 115.782 29.5462 111.654C29.5462 109.086 31.6288 107.004 34.1967 107.004ZM35.1983 110.653C34.3096 109.764 32.7806 110.395 32.7806 111.654C32.7806 112.913 34.3096 113.544 35.1983 112.656C35.7511 112.103 35.7511 111.205 35.1983 110.653ZM10.2749 87.1655C9.49593 86.6512 8.45095 86.8997 7.98735 87.7016L0.217542 101.159C-0.229073 101.93 0.0339908 102.918 0.805123 103.364L37.0726 124.303L37.0742 124.301C37.8305 124.747 38.8297 124.487 39.2774 123.71L47.0472 110.252C47.4903 109.481 47.2243 108.496 46.4534 108.053L40.7172 104.742C42.2948 102.634 43.9799 100.756 45.6364 99.3408C47.2871 97.9312 48.853 97.0164 50.1589 96.8703L75.7775 96.6088C76.0136 96.6226 76.2561 96.5846 76.4893 96.4878L116.413 79.7997C117.519 79.3375 118.339 78.5084 118.789 77.3925C120.026 74.3317 120.673 71.0954 118.953 68.8974C117.283 66.7643 114.157 66.5985 111.061 67.0605L111.062 67.0613L92.0413 73.2549C91.3497 70.1046 89.708 67.4511 86.4 67.1794L86.3997 67.1834C86.3089 67.1764 86.2159 67.177 86.1221 67.1859L59.3546 69.7957C50.2872 66.1261 42.0161 66.2266 34.5444 69.8135C27.2492 73.3158 20.8023 80.1377 15.2006 90.0096L10.2749 87.1655ZM17.9913 91.6206L37.906 103.118C40.7347 99.2802 45.4206 94.09 49.9064 93.6556V93.6564C49.9522 93.6521 49.9986 93.6496 50.0452 93.6494L75.5295 93.3893L115.174 76.8176C115.484 76.6882 115.67 76.5001 115.795 76.1917C116.557 74.3045 117.208 71.897 116.413 70.8806C116.253 70.6766 116.015 70.5105 115.698 70.3825C114.818 70.027 113.471 69.9785 111.659 70.2375L91.3044 76.8917C91.2599 76.9079 91.2144 76.9224 91.1677 76.9348L67.3829 83.3079C66.5212 83.5381 65.6357 83.0263 65.4056 82.1646C65.1754 81.3029 65.6872 80.4175 66.5489 80.1873L88.9411 74.1872C88.715 73.0326 88.384 72.1347 87.9485 71.4943C87.5156 70.858 86.9498 70.4968 86.2512 70.4114L59.3578 73.0334C59.0737 73.0781 58.774 73.0477 58.4891 72.9293C40.3232 65.3884 27.4204 74.9888 17.9913 91.6206ZM43.4511 110.039L9.97542 90.7112L3.81742 101.377L37.2931 120.704L43.4511 110.039Z" fill="#02543E"/>
</svg>
