<svg width="120" height="125" viewBox="0 0 120 125" fill="none" xmlns="http://www.w3.org/2000/svg">
<path d="M76.6494 41.0634C76.6482 41.0634 76.6467 41.0634 76.6455 41.0634L65.7776 41.0804L62.4399 30.7251C62.1086 29.6971 61.1518 29.0002 60.0717 29H60.0712C58.9914 29 58.0346 29.6966 57.7028 30.7243L54.3607 41.0804L43.4928 41.0634C43.4915 41.0634 43.4903 41.0634 43.4888 41.0634C42.4107 41.0634 41.4551 41.7577 41.1219 42.7833C40.7884 43.8101 41.155 44.9349 42.0295 45.5678L50.8346 51.9408L47.4593 62.2799C47.1243 63.3062 47.4892 64.4315 48.3629 65.0659C48.7989 65.3824 49.3121 65.5407 49.825 65.5407C50.3398 65.5407 50.8547 65.3812 51.2917 65.0624L60.0705 58.6575L68.8445 65.0621C69.7165 65.6992 70.9001 65.7 71.7736 65.0661C72.6476 64.4318 73.0126 63.3064 72.6774 62.2799L69.3021 51.9408L78.108 45.568C78.9828 44.9349 79.3493 43.8103 79.0156 42.7833C78.6834 41.7577 77.7275 41.0634 76.6494 41.0634ZM64.915 48.9727C64.0393 49.6065 63.673 50.7333 64.0084 51.7611L65.5551 56.4986L61.5385 53.5668C60.6648 52.929 59.4789 52.9288 58.6045 53.5666L54.5817 56.5016L56.1293 51.7611C56.4648 50.7333 56.0984 49.6068 55.2227 48.9729L51.1882 46.0528L56.1679 46.0605C56.1691 46.0605 56.1706 46.0605 56.1719 46.0605C57.2517 46.0605 58.2085 45.3642 58.5402 44.3362L60.0697 39.5962L61.5972 44.3352C61.9287 45.3635 62.8856 46.0605 63.9659 46.0603C63.9671 46.0603 63.9686 46.0603 63.9698 46.0603L68.9498 46.0525L64.915 48.9727Z" fill="#02543E"/>
<path d="M119.558 32.0438C118.443 28.0934 115.34 25.7352 111.258 25.7352C107.658 25.7352 103.608 27.6076 99.5308 31.0949V19.957H102.218C103.592 19.957 104.707 18.8428 104.707 17.4684V2.48859C104.707 1.11414 103.592 0 102.218 0H17.7797C16.4053 0 15.2912 1.11414 15.2912 2.48859V17.4684C15.2912 18.8428 16.4053 19.957 17.7797 19.957H20.4677V31.0942C16.3911 27.6076 12.3424 25.7352 8.74293 25.7352C4.66065 25.7352 1.55738 28.0939 0.441994 32.0446C-0.739588 36.2294 0.466381 41.5079 3.83767 46.9076C7.44314 52.6827 13.3647 58.2673 21.0022 63.1093C22.0818 69.6772 24.7834 75.8355 28.9729 81.1902C33.9653 87.5714 40.8233 92.3114 48.4426 94.6848V104.724H32.8962C31.5217 104.724 30.4076 105.838 30.4076 107.212V121.939C30.4076 123.314 31.5217 124.428 32.8962 124.428H87.1028C88.477 124.428 89.5914 123.314 89.5914 121.939V107.212C89.5914 105.838 88.477 104.724 87.1028 104.724H71.5564V94.6848C79.1759 92.3117 86.0337 87.5714 91.0261 81.1902C95.2156 75.8352 97.9172 69.677 98.9966 63.1093C106.634 58.2673 112.556 52.6824 116.162 46.9071C119.534 41.5072 120.74 36.2286 119.558 32.0438ZM20.2683 4.97718H99.7297V14.9798H97.0425H22.9563H20.2683V4.97718ZM20.4684 56.763C7.21494 47.3431 3.97878 37.835 5.23178 33.3969C5.73472 31.6155 6.91606 30.7124 8.74268 30.7124C10.2898 30.7124 14.4615 31.4423 20.4674 38.0261V56.527C20.4677 56.6054 20.4679 56.6843 20.4684 56.763ZM84.614 119.45H35.3845V109.7H50.931H69.0676H84.614V119.45ZM68.4494 90.3945C67.3487 90.6769 66.579 91.6689 66.579 92.8052V104.724H53.4196V92.8052C53.4196 91.6691 52.6498 90.6769 51.5494 90.3945C37.7708 86.8602 27.7192 75.3014 25.785 61.4201C25.7773 61.3171 25.7654 61.2153 25.7455 61.1162C25.6964 60.7464 25.6536 60.3741 25.6163 60.0001C25.6148 59.9842 25.6133 59.968 25.6118 59.9518C25.576 59.5868 25.5459 59.2202 25.5215 58.8524C25.5212 58.8454 25.5205 58.8387 25.52 58.8317C25.4973 58.4838 25.4812 58.1344 25.4685 57.7845C25.466 57.7118 25.4638 57.6394 25.4618 57.5668C25.4516 57.2208 25.4448 56.8744 25.4448 56.528C25.4448 56.5278 25.4448 56.5275 25.4448 56.5273V37.076V19.957H94.5539V37.0757V56.527C94.5539 56.5273 94.5539 56.5273 94.5539 56.5275C94.5539 56.8879 94.5467 57.2482 94.5358 57.6083C94.5335 57.6748 94.5318 57.741 94.5295 57.8072C94.5163 58.1688 94.4987 58.5301 94.4745 58.8904C94.4728 58.9141 94.4708 58.9372 94.4693 58.9609C94.4158 59.7381 94.3372 60.5108 94.2326 61.2733C94.2316 61.2797 94.2321 61.2865 94.2314 61.2929C92.3408 75.2308 82.27 86.8492 68.4494 90.3945ZM99.5303 56.763C99.5308 56.6846 99.5311 56.6059 99.5311 56.5273V38.0261C105.539 31.4421 109.71 30.7124 111.258 30.7124C113.084 30.7124 114.266 31.6153 114.768 33.3964C116.021 37.8345 112.787 47.3422 99.5303 56.763Z" fill="#02543E"/>
</svg>
