<svg width="120" height="94" viewBox="0 0 120 94" fill="none" xmlns="http://www.w3.org/2000/svg">
<path d="M36.6667 0C28.0248 0 20.9896 7.07943 20.9896 15.7813C20.9896 20.1322 22.6435 25.8008 25.3125 30.625C26.5357 32.8359 27.9601 34.8652 29.6354 36.4583L12.0312 43.5417C8.29081 45.053 5 48.7807 5 54.1667V66.6667H0V70H54.4271C52.7807 71.8947 51.6667 74.394 51.6667 77.5V91.6667V93.3333H53.3333H120V90H55V77.5C55 73.4248 57.2714 71.0293 59.9479 69.9479H60L60.0521 69.8958L79.1146 60.8333L81.5104 59.6875L79.4271 58.0729C77.1323 56.2534 74.9151 52.8673 73.3854 49.2708C71.8558 45.6743 70.9896 41.8463 70.9896 39.1667C70.9896 32.2498 76.5148 26.6667 83.3333 26.6667C90.1519 26.6667 95.6771 32.2498 95.6771 39.1667C95.6771 41.8463 94.8109 45.6743 93.2812 49.2708C91.7516 52.8673 89.5344 56.2534 87.2396 58.0729L85.1562 59.6875L87.5521 60.8333L106.615 69.8958L106.667 69.9479H106.719C109.395 71.0293 111.667 73.4248 111.667 77.5V80H115V77.5C115 72.1677 111.763 68.4629 108.073 66.9271L107.969 66.875L90.9896 58.8021C93.1445 56.5108 95.0261 53.6953 96.3542 50.5729C98.0323 46.6273 99.0104 42.5383 99.0104 39.1667C99.0104 30.4634 91.9788 23.3333 83.3333 23.3333C74.6879 23.3333 67.6562 30.4634 67.6562 39.1667C67.6562 42.5383 68.6343 46.6273 70.3125 50.5729C71.6405 53.6953 73.5221 56.5108 75.6771 58.8021L68.3333 62.2917V54.1667C68.3333 48.7807 65.0425 45.053 61.3021 43.5417L43.6979 36.4583C45.3732 34.8652 46.7976 32.8359 48.0208 30.625C50.6898 25.8008 52.3438 20.1322 52.3438 15.7813C52.3438 7.07943 45.3085 0 36.6667 0ZM36.6667 3.33333C43.4888 3.33333 49.0104 8.8629 49.0104 15.7813C49.0104 19.2404 47.5022 24.676 45.1042 29.0104C43.9052 31.1776 42.4626 33.0794 40.9896 34.375C39.5166 35.6706 38.0819 36.3542 36.6667 36.3542C35.2514 36.3542 33.8168 35.6706 32.3438 34.375C30.8707 33.0794 29.4282 31.1776 28.2292 29.0104C25.8312 24.676 24.3229 19.2404 24.3229 15.7813C24.3229 8.8629 29.8445 3.33333 36.6667 3.33333ZM32.8125 38.6979C32.936 38.7598 33.0517 38.8496 33.1771 38.9062L30.0521 54.6354L29.8438 55.5208L30.4688 56.1458L35.4688 61.1458L36.6667 62.3438L37.8646 61.1458L42.8646 56.1458L43.4896 55.5208L43.2812 54.6354L40.1562 38.9062C40.2816 38.8496 40.3974 38.7598 40.5208 38.6979L60.0521 46.6146C62.7218 47.6933 65 50.094 65 54.1667V63.8542L59.1146 66.6667H8.33333V54.1667C8.33333 50.094 10.6115 47.6933 13.2812 46.6146L32.8125 38.6979ZM36.4062 39.6875C36.4955 39.6906 36.5769 39.6875 36.6667 39.6875C36.7565 39.6875 36.8379 39.6906 36.9271 39.6875L39.8958 54.375L36.6667 57.6042L33.4375 54.375L36.4062 39.6875Z" fill="#02543E"/>
</svg>
