<svg width="103" height="105" viewBox="0 0 103 105" fill="none" xmlns="http://www.w3.org/2000/svg">
<path d="M101.64 55.2L88.44 39.72C87.84 39 86.88 38.52 85.92 38.64L71.16 38.76V27.36C71.16 24.72 69.12 22.56 66.72 22.56H51.36C51 9.96 40.92 0 28.32 0C15.72 0 5.64 10.08 5.4 22.44H4.44C1.92 22.44 0 24.6 0 27.24V71.52C0 71.52 0 71.64 0 71.76V92.04C0 93.84 1.44 95.28 3.24 95.28H7.2C7.32 100.44 11.64 104.64 16.92 104.64C22.2 104.64 26.4 100.44 26.64 95.28H70.8C70.92 100.44 75.24 104.64 80.52 104.64C85.8 104.64 90 100.44 90.24 95.28H99.36C101.16 95.28 102.6 93.84 102.6 92.04L102.84 57.36C102.48 56.52 102.24 55.8 101.64 55.2ZM25.8 3.72C38.52 2.16 49.2 12.84 47.52 25.44C46.44 34.08 39.48 41.04 30.84 42.12C18.24 43.8 7.56 33.12 9.12 20.4C10.2 11.76 17.16 4.8 25.8 3.72ZM3.6 71.64V71.52V66.72H12.72C13.56 66.72 14.16 66 14.16 65.28C14.16 64.56 13.44 63.84 12.72 63.84H3.6V60.6H12.84C13.68 60.6 14.28 59.88 14.28 59.16C14.28 58.44 13.56 57.72 12.84 57.72H3.6V27.24C3.6 26.64 3.96 26.04 4.44 26.04H5.64C7.2 37.32 16.8 45.96 28.44 45.96C40.08 45.96 49.68 37.2 51.24 26.04H66.96C67.44 26.04 67.8 26.64 67.8 27.24V50.16L67.68 70.32C67.44 70.68 67.08 71.16 66.72 71.52L3.6 71.64ZM18.24 100.8C13.8 101.76 9.96 97.92 10.92 93.48C11.4 91.2 13.2 89.4 15.48 88.92C19.92 87.96 23.76 91.8 22.8 96.24C22.32 98.52 20.52 100.32 18.24 100.8ZM81.72 100.8C77.28 101.76 73.44 97.92 74.4 93.48C74.88 91.2 76.68 89.4 78.96 88.92C83.4 87.96 87.24 91.8 86.28 96.24C85.68 98.52 83.88 100.32 81.72 100.8ZM98.64 91.56H89.4C88.08 87.84 84.48 85.2 80.28 85.2C76.08 85.2 72.48 87.84 71.16 91.56H26.04V91.8C24.72 87.96 21.12 85.2 16.92 85.2C12.72 85.2 9.12 87.84 7.8 91.56H3.6V75.24C3.84 75.24 4.2 75.24 4.44 75.24H66.48C69 75.24 71.28 72.72 71.28 69.96V50.04V42.24L85.92 42.12L98.88 57.36L98.64 91.56Z" fill="#02543E"/>
<path d="M76.3203 51.9599V63.4799C76.3203 64.0799 76.5603 64.5599 76.9203 64.9199C77.2803 65.2799 77.8803 65.5199 78.3603 65.5199H91.6803C92.8803 65.5199 93.8403 64.5599 93.8403 63.3599V56.9999C93.8403 56.3999 93.6003 55.9199 93.2403 55.5599L88.2003 50.3999C87.8403 50.0399 87.2403 49.7999 86.7603 49.7999H78.4803C77.2803 49.7999 76.3203 50.7599 76.3203 51.9599ZM79.3203 52.7999H86.2803L90.8403 57.3599V62.5199H79.3203V52.7999Z" fill="#02543E"/>
<path d="M38.7606 31.5599C39.4806 31.5599 40.0806 31.1999 40.4406 30.4799C40.8006 29.6399 40.4406 28.6799 39.7206 28.1999L30.2406 21.9599V9.95991C30.2406 8.99991 29.4006 8.15991 28.4406 8.15991C27.4806 8.15991 26.6406 8.99991 26.6406 9.95991V23.2799C26.6406 23.6399 26.8806 23.9999 27.1206 24.2399L37.6806 31.3199C38.0406 31.5599 38.4006 31.5599 38.7606 31.5599Z" fill="#02543E"/>
</svg>
